<?xml version="1.0" standalone="no"?><!DOCTYPE svg PUBLIC "-//W3C//DTD SVG 1.1//EN" "http://www.w3.org/Graphics/SVG/1.1/DTD/svg11.dtd"><svg t="1660270596934" class="icon" viewBox="0 0 1024 1024" version="1.1" xmlns="http://www.w3.org/2000/svg" p-id="2589" xmlns:xlink="http://www.w3.org/1999/xlink" width="64" height="64"><defs><style type="text/css"></style></defs><path d="M466.7 411.3l36.2 84.2h339.5V175.8c0-42.4-35.7-76.8-79.6-76.8H305c-43.9 0-79.6 34.3-79.6 76.8v203h190.8c21.7-0.3 41.6 12.5 50.5 32.5z m-98.6-167.9c0-13.7 11.2-24.9 24.9-24.9h282c13.7 0 24.9 11.2 24.9 24.9s-11.2 24.9-24.9 24.9H393c-13.9 0-24.9-11.2-24.9-24.9z m0 0" p-id="2590"></path><path d="M868.2 533.7H485.4l-36.2-87.3c-8.5-20.5-28.3-33.8-50.6-33.8H151.5c-30.2 0-54.7 24.5-54.7 54.7v114.4c0 1.6 0.1 3.3 0.3 4.9-0.1 1.6-0.3 3.3-0.3 4.9v278.7c0 15.4 6.1 30.2 17 41.1 10.9 10.9 25.7 17 41.1 17h713.2c15.4 0 30.2-6.1 41.1-17 10.9-10.9 17-25.7 17-41.1V591.7c0-15.4-6.1-30.2-17-41.1-11-10.8-25.7-16.9-41-16.9z m-637 210.6c-27.5 0-52.3-16.6-62.8-42s-4.7-54.7 14.8-74.1c19.4-19.4 48.7-25.3 74.1-14.8 25.4 10.5 42 35.4 42 62.8-0.1 37.6-30.6 68.1-68.1 68.1z m0 0" p-id="2591"></path></svg>